<?xml version="1.0" encoding="utf-8"?>
<!-- Generator: Adobe Illustrator 22.0.1, SVG Export Plug-In . SVG Version: 6.00 Build 0)  -->
<svg version="1.1" xmlns="http://www.w3.org/2000/svg" xmlns:xlink="http://www.w3.org/1999/xlink" x="0px" y="0px"
	 viewBox="0 0 500.8 500" style="enable-background:new 0 0 500.8 500;" xml:space="preserve">
<style type="text/css">
	.st0{display:none;}
	.st1{display:inline;stroke:#000000;stroke-miterlimit:10;}
	.st2{fill:#FF0000;}
	.st3{fill:#0000FF;}
	.st4{fill:#00FF00;}
</style>
<g id="Livello_2" class="st0">
	<rect x="-62" y="-15" class="st1" width="572" height="556"/>
</g>
<g id="Livello_1">
	<polygon points="305.6,54.6 277.8,26.8 277.8,26.8 250,-1 222.2,26.8 194.3,54.7 166.5,82.5 166.5,82.5 138.7,110.3 138.7,110.3 
		110.9,138.1 138.7,165.9 166.5,138.1 166.5,138.1 194.4,110.3 194.4,110.3 222.2,82.5 250,54.7 250,54.7 277.8,82.5 305.6,110.3 
		333.4,82.4 	"/>
	<polygon class="st2" points="55.2,249.5 83,221.7 110.8,193.8 83,166 55.2,193.8 27.3,221.7 -0.5,249.5 27.3,277.3 55.2,305.2 
		83,333 110.8,305.2 83,277.3 	"/>
	<polygon class="st3" points="472.7,221.7 444.8,193.8 417,166 389.2,193.8 417,221.7 444.8,249.5 417,277.3 389.2,305.2 417,333 
		444.8,305.2 472.7,277.3 500.5,249.5 	"/>
	<polygon points="361.3,333.1 333.5,360.9 333.5,360.9 305.7,388.7 305.6,388.7 277.8,416.5 250,444.3 222.2,416.6 194.4,388.7 
		166.6,416.6 194.4,444.4 194.4,444.4 222.2,472.2 222.2,472.2 250,500 277.8,472.2 305.7,444.3 333.5,416.5 333.5,416.5 
		361.3,388.7 361.3,388.7 389.1,360.9 	"/>
	<polygon class="st4" points="361.3,110.3 333.5,138.2 305.7,166 277.8,193.8 250,221.7 222.2,249.5 194.3,277.3 166.5,305.2 
		138.7,333 138.7,333 110.9,360.8 138.7,388.6 166.5,360.8 166.5,360.8 194.3,333 222.2,305.2 250,277.3 277.8,249.5 305.7,221.7 
		333.5,193.8 361.3,166 389.2,138.2 	"/>
</g>
</svg>
