<?xml version="1.0" encoding="iso-8859-1"?>
<!-- Generator: Adobe Illustrator 19.0.0, SVG Export Plug-In . SVG Version: 6.00 Build 0)  -->
<svg version="1.1" id="Capa_1" xmlns="http://www.w3.org/2000/svg" xmlns:xlink="http://www.w3.org/1999/xlink" x="0px" y="0px"
	 viewBox="0 0 512 512" style="enable-background:new 0 0 512 512;" xml:space="preserve">
<g>
	<g>
		<path d="M0,0v512h512V0H0z M482,482H30V30h452V482z"/>
	</g>
</g>
<g>
	<g>
		<path d="M385.059,254.08V224.8c-29.04-3.05-43.121,24-45.36,28.32v-26.88h-29.52V352h32.16v-76.08
			C345.699,268.72,356.769,254.08,385.059,254.08L385.059,254.08z"/>
	</g>
</g>
<g>
	<g>
		<path d="M255.7,264.64c16.425-7.015,24.48-23.64,24.48-39.6c0-27.165-20.93-43.44-38.88-43.44h-91.2V352h82.32
			c43.205,0,54.96-25.75,54.96-43.92C287.38,286.625,275.5,270,255.7,264.64z M183.22,209.92h45.6c10.68,0,18.72,8.58,18.72,21.36
			c0,11.97-7.915,21.6-20.16,21.6h-44.16V209.92z M232.42,323.92h-49.2v-44.88h50.88c9.4,0,19.92,9.241,19.92,22.8
			C254.02,314.875,243.25,323.92,232.42,323.92z"/>
	</g>
</g>
<g>
</g>
<g>
</g>
<g>
</g>
<g>
</g>
<g>
</g>
<g>
</g>
<g>
</g>
<g>
</g>
<g>
</g>
<g>
</g>
<g>
</g>
<g>
</g>
<g>
</g>
<g>
</g>
<g>
</g>
</svg>
